<svg id="svg2" xmlns="http://www.w3.org/2000/svg" xmlns:xlink="http://www.w3.org/1999/xlink" viewBox="0 0 192 192"><defs><style>.cls-1{fill:none;}.cls-2{filter:url(#filter5248);}.cls-3{fill:#b0bec5;}.cls-4{fill:#cfd8dc;}.cls-5{fill:#607d8b;}.cls-6{fill:#455a64;}.cls-7{fill:#f5f5f5;}.cls-8{fill:#81c784;}.cls-9{fill:#4caf50;}.cls-10,.cls-13,.cls-14{opacity:0.2;}.cls-10,.cls-13,.cls-14,.cls-15{isolation:isolate;}.cls-10{fill:url(#linear-gradient);}.cls-11{clip-path:url(#clip-path);}.cls-12{filter:url(#filter4311);}.cls-13{fill:#fff;}.cls-14{fill:#263238;}.cls-15{opacity:0.1;fill:url(#radial-gradient);}.cls-16{font-size:11.21px;fill:#f2f2f2;font-family:ShreeDev0714, Shree Devanagari 714;}</style><filter id="filter5248" name="filter5248"><feFlood result="flood" flood-color="rgb(0,0,0)" flood-opacity="0.2"/><feComposite result="composite1" operator="in" in="flood" in2="SourceGraphic"/><feGaussianBlur result="blur" stdDeviation="2" in="composite1"/><feOffset result="offset" dy="4"/><feComposite result="fbSourceGraphic" in="SourceGraphic" in2="offset"/><feFlood result="flood" flood-color="rgb(0,0,0)" flood-opacity="0.2" in="fbSourceGraphic"/><feComposite result="composite1" operator="in" in="flood" in2="fbSourceGraphic"/><feGaussianBlur result="blur" stdDeviation="2" in="composite1"/><feOffset result="offset"/><feComposite result="composite2" in="fbSourceGraphic" in2="offset"/></filter><linearGradient id="linear-gradient" x1="125.42" y1="138.46" x2="213.42" y2="74.46" gradientTransform="matrix(1, 0, 0, -1, 0, 194)" gradientUnits="userSpaceOnUse"><stop offset="0" stop-color="#263238"/><stop offset="1" stop-color="#263238" stop-opacity="0"/></linearGradient><clipPath id="clip-path"><path class="cls-1" d="M167.69,8a4.86,4.86,0,0,0-3.45,1.43L149,24.68l-9.44-9.34-6.89,6.89,6.94,6.94L136.78,32H20C14,32,8,38,8,44V148c0,6,6,12,12,12H172c6,0,12-6,12-12V44c0-4.29-3.07-8.56-7-10.66l5.53-5.53a4.88,4.88,0,0,0,0-6.94L171.14,9.43A4.86,4.86,0,0,0,167.69,8Z"/></clipPath><filter id="filter4311" name="filter4311"><feFlood result="flood" flood-color="rgb(38,50,56)" flood-opacity="0.2"/><feComposite result="composite1" operator="in" in="flood" in2="SourceGraphic"/><feGaussianBlur result="blur" stdDeviation="4" in="composite1"/><feOffset result="offset" dy="4"/><feComposite result="composite2" in="SourceGraphic" in2="offset"/></filter><radialGradient id="radial-gradient" cx="-27.89" cy="601.5" r="88" gradientTransform="matrix(0, 1.73, 2, 0, -1195, 56.18)" gradientUnits="userSpaceOnUse"><stop offset="0" stop-color="#fff"/><stop offset="1" stop-color="#fff" stop-opacity="0"/></radialGradient></defs><title>Artboard 1</title><g id="layer2"><g class="cls-2"><path id="path5588" class="cls-3" d="M20,32C14,32,8,38,8,44V96H20L32,84l50,26h42l60,8V44c0-6-6-12-12-12Z"/><path id="path4194" class="cls-4" d="M44,48A24,24,0,0,0,20.33,68.21,13.81,13.81,0,0,0,8,72.21V98.14l44.61,12a13.94,13.94,0,0,0,16.35,5,14,14,0,0,0,22.31,5.39l39.91,10.7,10.63-12a18,18,0,0,0,26.95-2.92A28,28,0,0,0,184,123.69V68.33a28,28,0,0,0-23.17,21A17.93,17.93,0,0,0,136.47,110H124l-14,0-14.89-5a14,14,0,0,0-18-8.1A14,14,0,0,0,64.71,88l-1-2.37a24,24,0,0,0-15.4-37.25l-.06-.14-.1.12A24,24,0,0,0,44,48Z"/><path id="path4190" class="cls-5" d="M8,124v24c0,6,6,12,12,12H172c6,0,12-6,12-12V124Z"/><g id="g4230"><path id="path4232" class="cls-6" d="M103.77,68l-.62,20.85,14.76-.09L138.42,68Z"/><path id="path4234" class="cls-7" d="M139.61,29.18,96,72.78V96h23.22l43.61-43.6Zm5.57,8.26,9.38,9.38-39.4,39.4-9.39-9.38Z"/><path id="path4236" class="cls-8" d="M167.69,8a4.86,4.86,0,0,0-3.45,1.43L149,24.68l-9.44-9.34,27.72,27.72,15.25-15.25a4.88,4.88,0,0,0,0-6.94L171.14,9.43A4.86,4.86,0,0,0,167.69,8Z"/><path id="path4238" class="cls-9" d="M139.56,15.34l-6.89,6.89,37.1,37.1,6.89-6.89Z"/></g><path id="path4273" class="cls-6" d="M8,96H20L32,84l50,26h42l60,8v6H8Z"/></g></g><g id="layer1"><path id="path4774" class="cls-1" d="M34,49.75H58v24H34Z"/><path id="path4925" class="cls-10" d="M168.26,8.57A4.86,4.86,0,0,0,164.81,10L149.56,25.25l-9.44-9.34-6.89,6.89,6.37,6.37.57.57L96.57,73.35V96.57h.57v.57h.56v.56h.56v.56h.56v.56h.56v.56h.56v.56h.56v.56h.56v.56h.55v.55h.55v.55h.55v.55h.55v.55h.55v.55h.55v.55h.54v.54h.54v.54H106V106h.54v.54h.54v.54h.54v.54h.54v.54h.53v.53h.53v.53h.53v.53h.53v.53h.53v.53h.53v.53h.52v.52h.52v.52h.52v.52h.52v.52h.52v.52h.52v.52h.51v.51h.51v.51H116V116h.51v.51H117V117h.51v.51h.5v.5h.5v.5h.5v.5h.5v.5h.5v.5h.5v.5H121V121h.49v.49H122V122h.49v.49h.49v.49h.49v.49h.48v.48h.48v.48h.48v.48h.48v.48h.48v.48h.48v.48h.47v.47h.47v.47h.47v.47h.47v.47h.47v.47h.47v.47h.46v.46h.46v.46h.46v.46H131V131h.46v.46h.46v.46h.46v.46h.46v.46h.45v.45h.45v.45h.45v.45h.45v.45h.45v.45h.44v.44h.44v.44h.44v.44h.44v.44h.44v.44h.44v.44h.44v.44h.43v.43H139V139h.43v.43h.43v.43h.43v.43h.42v.42h.42v.42h.42v.42H142V142h.42v.42h.42v.42h.42v.42h.41v.41H144V144h.41v.41h.41v.41h.41v.41h.41v.41h.4v.4h.4v.4h.4v.4h.4v.4h.4v.4h.39v.39h.39v.39h.39v.39h.39v.39h.39v.39H150V150h.38v.38h.38v.38h.38v.38h.38v.38h.38v.38h.38v.38h.38v.38h.38v.38h.37v.37h.37v.37h.37v.37h.37v.37h.37v.37h.37v.37h.36v.36H156V156h.36v.36h.36v.36h.36v.36h.36v.36h.35v.35h.35v.35h.35v.35h.35v.35h.35v.35h.34v.34h.34v.34h.34V160H172c6,0,12-6,12-12V44c0-4.29-3.07-8.56-7-10.66l5.53-5.53a4.88,4.88,0,0,0,0-6.94L171.71,10A4.86,4.86,0,0,0,168.26,8.57Z"/><g class="cls-11"><g class="cls-12"><path id="path4795" class="cls-8" d="M167.69,8a4.86,4.86,0,0,0-3.45,1.43L149,24.68l-9.44-9.34,27.72,27.72,15.25-15.25a4.88,4.88,0,0,0,0-6.94L171.14,9.43A4.86,4.86,0,0,0,167.69,8Z"/><path id="path4793" class="cls-6" d="M103.77,68l-.62,20.85,14.76-.09L138.42,68Z"/><path id="path4776" class="cls-7" d="M139.61,29.18,96,72.78V96h23.22l43.61-43.6Zm5.57,8.26,9.38,9.38-39.4,39.4-9.39-9.38Z"/><path id="path4802" class="cls-9" d="M139.56,15.34l-6.89,6.89,37.1,37.1,6.89-6.89Z"/></g></g><path id="path6543" class="cls-13" d="M101.25,73.25,143.5,34.5l15.75,15-44.5,41.75Z"/><path id="path6565" class="cls-7" d="M139.61,29.18,96,72.78V96h23.22l43.61-43.6Zm5.57,8.26,9.38,9.38-39.4,39.4-9.39-9.38Z"/><g class="cls-11"><g id="g4844"><path id="path4834" class="cls-13" d="M167.69,8a4.86,4.86,0,0,0-3.45,1.43L149,24.68l-9.44-9.34-6.89,6.89.5.5,6.39-6.39L149,25.68l15.25-15.25a4.87,4.87,0,0,1,6.89,0l11.44,11.44A4.8,4.8,0,0,1,184,24.79a4.81,4.81,0,0,0-1.37-3.93L171.14,9.43A4.86,4.86,0,0,0,167.69,8ZM139.11,29.68,96,72.78v1l43.61-43.6Zm28.67,13.88-.5.5,8.88,8.88.5-.5Zm-13.71,3.76L133.39,68H115.62l-1,1h18.77l21.18-21.18Z"/><path id="path4841" class="cls-14" d="M133.16,22.74l-.5.5,6.44,6.44.5-.5ZM184,24.79a4.94,4.94,0,0,1-1.42,3L167.28,43.06l.5.5,14.75-14.75A4.92,4.92,0,0,0,184,24.79ZM145.18,37.44,114.62,68h1l29.56-29.56,8.88,8.88.5-.5Zm17.65,15L119.22,96H96v1h23.22l43.61-43.6,6.94,6.94,6.89-6.89-.5-.5-6.39,6.39Z"/></g></g></g><g id="layer3"><path id="path15764" class="cls-13" d="M20,32C14,32,8,38,8,44v1c0-6,6-12,12-12H135.78l1-1Zm157,1.34-.66.66c4.25,2,7.67,6.47,7.67,11V44C184,39.71,180.93,35.44,177,33.34Z"/><path id="path15771" class="cls-14" d="M8,147v1c0,6,6,12,12,12H172c6,0,12-6,12-12v-1c0,6-6,12-12,12H20C14,159,8,153,8,147Z"/><path id="path6575" class="cls-15" d="M167.69,8a4.86,4.86,0,0,0-3.45,1.43L149,24.68l-9.44-9.34-6.89,6.89,6.94,6.94L136.78,32H20C14,32,8,38,8,44V148c0,6,6,12,12,12H172c6,0,12-6,12-12V44c0-4.29-3.07-8.56-7-10.66l5.53-5.53a4.88,4.88,0,0,0,0-6.94L171.14,9.43A4.86,4.86,0,0,0,167.69,8Z"/></g><text class="cls-16" transform="translate(11.15 145.15) scale(1.07 1)">OTGSubs</text><image width="300" height="300" transform="translate(4.43 31) scale(0.32 0.32)" xlink:href="subs.png"/></svg>